<?xml version="1.0" encoding="UTF-8" standalone="no"?><!DOCTYPE svg PUBLIC "-//W3C//DTD SVG 1.1//EN" "http://www.w3.org/Graphics/SVG/1.1/DTD/svg11.dtd"><svg width="100%" height="100%" viewBox="0 0 7 6" version="1.1" xmlns="http://www.w3.org/2000/svg" xmlns:xlink="http://www.w3.org/1999/xlink" xml:space="preserve" xmlns:serif="http://www.serif.com/" style="fill-rule:evenodd;clip-rule:evenodd;stroke-linejoin:round;stroke-miterlimit:2;"><g><path id="Cart-Plus-Icon" serif:id="Cart Plus Icon" d="M5.038,3.472c-0.928,0 -1.68,-0.752 -1.68,-1.68c0,-0.927 0.752,-1.68 1.68,-1.68c0.928,0 1.68,0.753 1.68,1.68c0,0.928 -0.752,1.68 -1.68,1.68Zm0.72,-1.92l-0.48,0l0,-0.48c0,-0.132 -0.107,-0.24 -0.24,-0.24c-0.133,0 -0.24,0.108 -0.24,0.24l0,0.48l-0.48,0c-0.133,0 -0.24,0.108 -0.24,0.24c0,0.133 0.107,0.24 0.24,0.24l0.48,0l0,0.48c0,0.133 0.107,0.24 0.24,0.24c0.133,0 0.24,-0.107 0.24,-0.24l0,-0.48l0.48,0c0.133,0 0.24,-0.107 0.24,-0.24c0,-0.132 -0.107,-0.24 -0.24,-0.24Zm-2.88,-0.96c-0.53,0 -0.96,0.43 -0.96,0.96l0,0.718l1.015,0c0.217,0.963 1.076,1.682 2.105,1.682c0.163,0 0.321,-0.019 0.474,-0.053l0.237,1.52c0.021,0.116 -0.006,0.224 -0.079,0.315c-0.072,0.091 -0.17,0.138 -0.284,0.138l-5.016,0c-0.114,0 -0.212,-0.047 -0.284,-0.138c-0.073,-0.091 -0.1,-0.199 -0.079,-0.315l0.442,-2.837c0.033,-0.183 0.183,-0.312 0.363,-0.312l0.626,0l0,-0.718c0,-0.795 0.645,-1.44 1.44,-1.44c0.228,0 0.441,0.058 0.633,0.153c-0.117,0.116 -0.218,0.248 -0.306,0.388c-0.102,-0.037 -0.212,-0.061 -0.327,-0.061Zm-0.96,1.68l-0.48,0l0,0.547c-0.143,0.083 -0.24,0.236 -0.24,0.413c0,0.266 0.215,0.48 0.48,0.48c0.265,0 0.48,-0.214 0.48,-0.48c0,-0.177 -0.097,-0.33 -0.24,-0.413l0,-0.547Z" style="fill:#5353a2;"/><path id="Cart-Plus-Icon1" serif:id="Cart Plus Icon" d="M5.211,3.36c-0.927,0 -1.68,-0.752 -1.68,-1.68c0,-0.928 0.753,-1.68 1.68,-1.68c0.928,0 1.68,0.752 1.68,1.68c0,0.928 -0.752,1.68 -1.68,1.68Zm0.72,-1.92l-0.48,0l0,-0.48c0,-0.133 -0.107,-0.24 -0.24,-0.24c-0.132,0 -0.24,0.107 -0.24,0.24l0,0.48l-0.48,0c-0.132,0 -0.24,0.107 -0.24,0.24c0,0.133 0.108,0.24 0.24,0.24l0.48,0l0,0.48c0,0.133 0.108,0.24 0.24,0.24c0.133,0 0.24,-0.107 0.24,-0.24l0,-0.48l0.48,0c0.133,0 0.24,-0.107 0.24,-0.24c0,-0.133 -0.107,-0.24 -0.24,-0.24Z" style="fill:#ff8b66;"/></g></svg>