<?xml version="1.0" encoding="UTF-8" standalone="no"?><!DOCTYPE svg PUBLIC "-//W3C//DTD SVG 1.1//EN" "http://www.w3.org/Graphics/SVG/1.1/DTD/svg11.dtd"><svg width="100%" height="100%" viewBox="0 0 6 6" version="1.1" xmlns="http://www.w3.org/2000/svg" xmlns:xlink="http://www.w3.org/1999/xlink" xml:space="preserve" xmlns:serif="http://www.serif.com/" style="fill-rule:evenodd;clip-rule:evenodd;stroke-linejoin:round;stroke-miterlimit:2;"><path id="Cart-Icon" serif:id="Cart Icon" d="M5.67,5.622c-0.072,0.091 -0.17,0.138 -0.284,0.138l-5.016,0c-0.114,0 -0.212,-0.047 -0.284,-0.138c-0.073,-0.091 -0.1,-0.199 -0.079,-0.315l0.442,-2.837c0.033,-0.183 0.183,-0.312 0.363,-0.312l0.626,0l0,-0.718c0,-0.795 0.645,-1.44 1.44,-1.44c0.795,0 1.44,0.645 1.44,1.44l0,0.718l0.626,0c0.18,0 0.33,0.129 0.363,0.312l0.442,2.837c0.021,0.116 -0.006,0.224 -0.079,0.315Zm-4.232,-3.462l0,0.547c-0.143,0.083 -0.24,0.236 -0.24,0.413c0,0.265 0.215,0.48 0.48,0.48c0.265,0 0.48,-0.215 0.48,-0.48c0,-0.177 -0.097,-0.33 -0.24,-0.413l0,-0.547l-0.48,0Zm2.4,-0.72c0,-0.53 -0.43,-0.96 -0.96,-0.96c-0.53,0 -0.96,0.43 -0.96,0.96l0,0.718l1.92,0l0,-0.718Zm0.48,1.267l0,-0.547l-0.48,0l0,0.547c-0.143,0.083 -0.24,0.236 -0.24,0.413c0,0.265 0.215,0.48 0.48,0.48c0.265,0 0.48,-0.215 0.48,-0.48c0,-0.177 -0.097,-0.33 -0.24,-0.413Z" style="fill:#ff8b66;"/></svg>