<?xml version="1.0" encoding="UTF-8" standalone="no"?><!DOCTYPE svg PUBLIC "-//W3C//DTD SVG 1.1//EN" "http://www.w3.org/Graphics/SVG/1.1/DTD/svg11.dtd"><svg width="100%" height="100%" viewBox="0 0 6 5" version="1.1" xmlns="http://www.w3.org/2000/svg" xmlns:xlink="http://www.w3.org/1999/xlink" xml:space="preserve" xmlns:serif="http://www.serif.com/" style="fill-rule:evenodd;clip-rule:evenodd;stroke-linejoin:round;stroke-miterlimit:2;"><path id="Menu-Icon" serif:id="Menu Icon" d="M5.4,2.4l-5.04,0c-0.199,0 -0.36,-0.161 -0.36,-0.36c0,-0.199 0.161,-0.36 0.36,-0.36l5.04,0c0.199,0 0.36,0.161 0.36,0.36c0,0.199 -0.161,0.36 -0.36,0.36Zm0,-1.68l-5.04,0c-0.199,0 -0.36,-0.161 -0.36,-0.36c0,-0.199 0.161,-0.36 0.36,-0.36l5.04,0c0.199,0 0.36,0.161 0.36,0.36c0,0.199 -0.161,0.36 -0.36,0.36Zm-5.04,2.64l5.04,0c0.199,0 0.36,0.161 0.36,0.36c0,0.199 -0.161,0.36 -0.36,0.36l-5.04,0c-0.199,0 -0.36,-0.161 -0.36,-0.36c0,-0.199 0.161,-0.36 0.36,-0.36Z" style="fill:#5353a2;"/></svg>