<?xml version="1.0" encoding="UTF-8" standalone="no"?><!DOCTYPE svg PUBLIC "-//W3C//DTD SVG 1.1//EN" "http://www.w3.org/Graphics/SVG/1.1/DTD/svg11.dtd"><svg width="100%" height="100%" viewBox="0 0 6 6" version="1.1" xmlns="http://www.w3.org/2000/svg" xmlns:xlink="http://www.w3.org/1999/xlink" xml:space="preserve" xmlns:serif="http://www.serif.com/" style="fill-rule:evenodd;clip-rule:evenodd;stroke-linejoin:round;stroke-miterlimit:2;"><path id="Logos" d="M5.255,2.58c0,-1.425 -1.222,-2.58 -2.621,-2.58c-1.452,0 -2.634,1.155 -2.634,2.58c0,1.405 1.182,2.554 2.634,2.554c1.452,0 2.621,-1.136 2.621,-2.554Zm-0.362,0c0,1.206 -1.018,2.201 -2.259,2.201c-1.248,0 -2.273,-0.988 -2.273,-2.201c0,-1.226 1.025,-2.234 2.273,-2.234c1.241,0 2.259,1.014 2.259,2.234Zm-0.368,0.34c0,-0.263 -0.151,-0.417 -0.341,-0.52l-0.144,-0.077c-0.086,-0.045 -0.158,-0.116 -0.158,-0.205c0,-0.103 0.085,-0.174 0.21,-0.174c0.085,0 0.164,0.033 0.223,0.058c0.092,0.045 0.151,-0.013 0.178,-0.109c0.032,-0.109 -0.014,-0.147 -0.092,-0.186c-0.079,-0.038 -0.191,-0.064 -0.302,-0.064c-0.309,0 -0.565,0.199 -0.565,0.52c0,0.25 0.131,0.391 0.341,0.507l0.151,0.083c0.092,0.051 0.151,0.122 0.151,0.218c0,0.122 -0.118,0.18 -0.236,0.18c-0.092,0 -0.204,-0.039 -0.263,-0.064c-0.098,-0.045 -0.151,0.013 -0.184,0.115c-0.033,0.109 0.02,0.154 0.105,0.193c0.079,0.038 0.217,0.07 0.342,0.07c0.322,0 0.584,-0.211 0.584,-0.545Zm-1.149,-0.064l0,-1.066c0,-0.089 -0.092,-0.134 -0.177,-0.134c-0.092,0 -0.177,0.045 -0.177,0.134l0,1.021c0,0.205 -0.066,0.34 -0.237,0.34c-0.164,0 -0.243,-0.128 -0.243,-0.34l0,-1.021c0,-0.089 -0.099,-0.134 -0.184,-0.134c-0.098,0 -0.184,0.045 -0.184,0.134l0,1.059c0,0.424 0.217,0.616 0.611,0.616c0.355,0 0.591,-0.199 0.591,-0.609Zm-1.373,0.077c0,-0.295 -0.21,-0.405 -0.322,-0.424l0,-0.006c0.132,-0.064 0.289,-0.186 0.289,-0.404c0,-0.296 -0.262,-0.437 -0.519,-0.437l-0.492,0c-0.092,0 -0.144,0.071 -0.144,0.148l0,1.501c0,0.09 0.091,0.135 0.177,0.135l0.466,0c0.283,0 0.545,-0.148 0.545,-0.513Zm-0.4,-0.751c0,0.167 -0.145,0.224 -0.296,0.224l-0.138,0l0,-0.449l0.138,0c0.158,0 0.296,0.052 0.296,0.225Zm0.052,0.712c0,0.173 -0.098,0.257 -0.308,0.257l-0.158,0l0,-0.501l0.158,0c0.131,0 0.308,0.045 0.308,0.244Z" style="fill:#ff8b66;fill-rule:nonzero;"/></svg>