<?xml version="1.0" encoding="UTF-8" standalone="no"?><!DOCTYPE svg PUBLIC "-//W3C//DTD SVG 1.1//EN" "http://www.w3.org/Graphics/SVG/1.1/DTD/svg11.dtd"><svg width="100%" height="100%" viewBox="0 0 8 8" version="1.1" xmlns="http://www.w3.org/2000/svg" xmlns:xlink="http://www.w3.org/1999/xlink" xml:space="preserve" xmlns:serif="http://www.serif.com/" style="fill-rule:evenodd;clip-rule:evenodd;stroke-linejoin:round;stroke-miterlimit:2;"><g><path d="M7.821,1.437c0,-0.793 -0.644,-1.437 -1.437,-1.437l-4.947,0c-0.793,0 -1.437,0.644 -1.437,1.437l0,2.874c0,0.793 0.644,1.437 1.437,1.437l0.014,0l0.922,1.591l0.825,-1.591l3.186,0c0.793,0 1.437,-0.644 1.437,-1.437l0,-2.874Z" style="fill:#0a0082;"/><path id="Logos" d="M6.368,2.687c0,-1.428 -1.196,-2.585 -2.565,-2.585c-1.421,0 -2.579,1.157 -2.579,2.585c0,1.408 1.158,2.559 2.579,2.559c1.421,0 2.565,-1.138 2.565,-2.559Zm-0.353,0c0,1.208 -0.997,2.205 -2.212,2.205c-1.222,0 -2.225,-0.99 -2.225,-2.205c0,-1.229 1.003,-2.238 2.225,-2.238c1.215,0 2.212,1.016 2.212,2.238Zm-0.36,0.34c0,-0.263 -0.148,-0.418 -0.335,-0.521l-0.141,-0.077c-0.084,-0.045 -0.155,-0.115 -0.155,-0.205c0,-0.103 0.084,-0.174 0.206,-0.174c0.084,0 0.161,0.032 0.219,0.058c0.09,0.045 0.148,-0.013 0.173,-0.109c0.033,-0.11 -0.013,-0.148 -0.09,-0.187c-0.077,-0.038 -0.186,-0.064 -0.295,-0.064c-0.303,0 -0.553,0.199 -0.553,0.521c0,0.25 0.128,0.392 0.334,0.508l0.148,0.083c0.09,0.052 0.148,0.122 0.148,0.219c0,0.122 -0.116,0.18 -0.232,0.18c-0.09,0 -0.199,-0.039 -0.257,-0.064c-0.096,-0.045 -0.148,0.012 -0.18,0.115c-0.032,0.11 0.019,0.155 0.103,0.193c0.077,0.039 0.212,0.071 0.334,0.071c0.315,0 0.573,-0.212 0.573,-0.547Zm-1.126,-0.064l0,-1.067c0,-0.09 -0.09,-0.135 -0.173,-0.135c-0.09,0 -0.174,0.045 -0.174,0.135l0,1.022c0,0.206 -0.064,0.341 -0.231,0.341c-0.161,0 -0.238,-0.129 -0.238,-0.341l0,-1.022c0,-0.09 -0.097,-0.135 -0.18,-0.135c-0.097,0 -0.181,0.045 -0.181,0.135l0,1.061c0,0.424 0.213,0.617 0.599,0.617c0.347,0 0.578,-0.199 0.578,-0.611Zm-1.344,0.077c0,-0.296 -0.205,-0.405 -0.315,-0.424l0,-0.007c0.129,-0.064 0.283,-0.186 0.283,-0.405c0,-0.295 -0.257,-0.437 -0.508,-0.437l-0.482,0c-0.09,0 -0.141,0.071 -0.141,0.148l0,1.505c0,0.09 0.09,0.135 0.173,0.135l0.457,0c0.276,0 0.533,-0.148 0.533,-0.515Zm-0.392,-0.752c0,0.167 -0.141,0.225 -0.289,0.225l-0.135,0l0,-0.45l0.135,0c0.154,0 0.289,0.051 0.289,0.225Zm0.052,0.714c0,0.173 -0.097,0.257 -0.303,0.257l-0.154,0l0,-0.502l0.154,0c0.129,0 0.303,0.045 0.303,0.245Z" style="fill:#fff;fill-rule:nonzero;"/></g></svg>