<?xml version="1.0" encoding="UTF-8" standalone="no"?><!DOCTYPE svg PUBLIC "-//W3C//DTD SVG 1.1//EN" "http://www.w3.org/Graphics/SVG/1.1/DTD/svg11.dtd"><svg width="100%" height="100%" viewBox="0 0 5 5" version="1.1" xmlns="http://www.w3.org/2000/svg" xmlns:xlink="http://www.w3.org/1999/xlink" xml:space="preserve" xmlns:serif="http://www.serif.com/" style="fill-rule:evenodd;clip-rule:evenodd;stroke-linejoin:round;stroke-miterlimit:2;"><g><path d="M3.477,0.994c0.181,0 0.327,-0.145 0.327,-0.326l0,-0.341c0,-0.181 -0.146,-0.327 -0.327,-0.327c-0.181,0 -0.326,0.146 -0.326,0.327l0,0.341c0,0.181 0.146,0.326 0.326,0.326Z" style="fill:#241f5d;fill-rule:nonzero;"/><path d="M4.638,0.565l-0.658,0l0,0.166c0,0.274 -0.223,0.498 -0.497,0.498c-0.275,0 -0.497,-0.224 -0.497,-0.498l0,-0.166l-1.328,0l0,0.166c0,0.274 -0.223,0.498 -0.497,0.498c-0.275,0 -0.497,-0.223 -0.497,-0.498l0,-0.166l-0.664,-0.008l0,4.153l4.311,0l0.332,-0.001l-0.005,-4.144Zm-0.327,3.814l-3.979,0l0,-2.653l3.979,0l0,2.653l0,0Z" style="fill:#241f5d;fill-rule:nonzero;"/><path d="M1.156,0.994c0.18,0 0.327,-0.145 0.327,-0.326l0,-0.341c0,-0.181 -0.147,-0.327 -0.327,-0.327c-0.181,0 -0.327,0.146 -0.327,0.327l0,0.341c0,0.181 0.146,0.326 0.327,0.326Z" style="fill:#241f5d;fill-rule:nonzero;"/><rect x="1.659" y="2.082" width="0.523" height="0.461" style="fill:#241f5d;"/><rect x="2.504" y="2.082" width="0.523" height="0.461" style="fill:#241f5d;"/><rect x="3.288" y="2.082" width="0.523" height="0.461" style="fill:#241f5d;"/><rect x="1.659" y="2.848" width="0.523" height="0.461" style="fill:#241f5d;"/><rect x="2.504" y="2.848" width="0.523" height="0.461" style="fill:#241f5d;"/><rect x="3.288" y="2.848" width="0.523" height="0.461" style="fill:#241f5d;"/><rect x="1.659" y="3.629" width="0.523" height="0.461" style="fill:#241f5d;"/><rect x="0.829" y="2.848" width="0.522" height="0.461" style="fill:#241f5d;"/><rect x="0.829" y="3.629" width="0.522" height="0.461" style="fill:#241f5d;"/><rect x="2.504" y="3.629" width="0.523" height="0.461" style="fill:#241f5d;"/><rect x="3.288" y="3.629" width="0.523" height="0.461" style="fill:#241f5d;"/></g></svg>