<?xml version="1.0" encoding="UTF-8" standalone="no"?><!DOCTYPE svg PUBLIC "-//W3C//DTD SVG 1.1//EN" "http://www.w3.org/Graphics/SVG/1.1/DTD/svg11.dtd"><svg width="100%" height="100%" viewBox="0 0 5 5" version="1.1" xmlns="http://www.w3.org/2000/svg" xmlns:xlink="http://www.w3.org/1999/xlink" xml:space="preserve" xmlns:serif="http://www.serif.com/" style="fill-rule:evenodd;clip-rule:evenodd;stroke-linejoin:round;stroke-miterlimit:2;"><path id="Close-Icon" serif:id="Close Icon" d="M4.22,0.62l-1.543,1.543l1.543,1.542c0.142,0.142 0.142,0.373 0,0.515c-0.142,0.142 -0.373,0.142 -0.515,0l-1.542,-1.543l-1.542,1.543c-0.142,0.142 -0.373,0.142 -0.515,0c-0.141,-0.142 -0.141,-0.373 0,-0.515l1.543,-1.542l-1.543,-1.543c-0.141,-0.141 -0.141,-0.372 0,-0.514c0.142,-0.141 0.373,-0.141 0.515,0l1.542,1.543l1.542,-1.543c0.142,-0.141 0.373,-0.141 0.515,0c0.142,0.142 0.142,0.373 0,0.514Z" style="fill:#5353a2;"/></svg>