<?xml version="1.0" encoding="UTF-8" standalone="no"?><!DOCTYPE svg PUBLIC "-//W3C//DTD SVG 1.1//EN" "http://www.w3.org/Graphics/SVG/1.1/DTD/svg11.dtd"><svg width="100%" height="100%" viewBox="0 0 8 8" version="1.1" xmlns="http://www.w3.org/2000/svg" xmlns:xlink="http://www.w3.org/1999/xlink" xml:space="preserve" xmlns:serif="http://www.serif.com/" style="fill-rule:evenodd;clip-rule:evenodd;stroke-linejoin:round;stroke-miterlimit:2;"><g><path d="M7.821,1.437c0,-0.793 -0.644,-1.437 -1.437,-1.437l-4.947,0c-0.793,0 -1.437,0.644 -1.437,1.437l0,2.874c0,0.793 0.644,1.437 1.437,1.437l0.014,0l0.922,1.591l0.825,-1.591l3.186,0c0.793,0 1.437,-0.644 1.437,-1.437l0,-2.874Z" style="fill:#0a0082;"/><g><path d="M2.416,4.36l-0.38,0c-0.121,0 -0.22,-0.099 -0.22,-0.22l0,-1.534c-0.036,0.011 -0.076,0.013 -0.115,0.001c-0.105,-0.03 -0.167,-0.141 -0.136,-0.246l0.059,-0.203c0.03,-0.106 0.141,-0.167 0.246,-0.136c0.034,0.009 0.063,0.027 0.087,0.051l0.124,-0.55c0.001,-0.049 -0.073,0.079 0.041,-0.191c0.077,-0.182 0.263,-0.31 0.467,-0.318c0.766,-0.009 1.533,-0.032 2.3,-0.022c0.265,0.01 0.497,0.231 0.507,0.507l0.118,0.522c0.105,-0.029 0.214,0.032 0.245,0.137l0.058,0.203c0.031,0.105 -0.03,0.216 -0.136,0.246c-0.028,0.009 -0.057,0.01 -0.085,0.006l0,1.527c0,0.121 -0.099,0.22 -0.22,0.22l-0.38,0c-0.122,0 -0.221,-0.099 -0.221,-0.22l0,-0.42l-0.879,0l-1.259,0l0,0.42c0,0.121 -0.099,0.22 -0.221,0.22Zm1.98,-1.121l-1.41,0c-0.032,0 -0.057,0.026 -0.057,0.058l0,0.115c0,0.032 0.025,0.057 0.057,0.057l1.41,0c0.032,0 0.058,-0.025 0.058,-0.057l0,-0.115c0,-0.032 -0.026,-0.058 -0.058,-0.058Zm-1.868,-0.592c0.21,0 0.38,0.111 0.38,0.248c0,0.137 -0.17,0.248 -0.38,0.248c-0.209,0 -0.379,-0.111 -0.379,-0.248c0,-0.137 0.17,-0.248 0.379,-0.248Zm2.398,-0.045c0.209,0 0.379,0.111 0.379,0.248c0,0.137 -0.17,0.248 -0.379,0.248c-0.21,0 -0.38,-0.111 -0.38,-0.248c0,-0.137 0.17,-0.248 0.38,-0.248Zm-2.323,-1.379c-0.167,0.002 -0.311,0.142 -0.313,0.313l-0.173,0.773l3.244,-0.021l-0.172,-0.763c-0.011,-0.173 -0.138,-0.318 -0.305,-0.325c-0.76,-0.009 -1.521,0.015 -2.281,0.023Z" style="fill:#fff;"/><g><ellipse cx="2.776" cy="1.857" rx="0.352" ry="0.359" style="fill:#fff;"/><ellipse cx="4.606" cy="1.814" rx="0.352" ry="0.359" style="fill:#fff;"/><ellipse cx="3.655" cy="1.602" rx="0.352" ry="0.359" style="fill:#fff;"/></g></g></g></svg>