<?xml version="1.0" encoding="UTF-8" standalone="no"?><!DOCTYPE svg PUBLIC "-//W3C//DTD SVG 1.1//EN" "http://www.w3.org/Graphics/SVG/1.1/DTD/svg11.dtd"><svg width="100%" height="100%" viewBox="0 0 5 4" version="1.1" xmlns="http://www.w3.org/2000/svg" xmlns:xlink="http://www.w3.org/1999/xlink" xml:space="preserve" xmlns:serif="http://www.serif.com/" style="fill-rule:evenodd;clip-rule:evenodd;stroke-linejoin:round;stroke-miterlimit:2;"><g><path d="M0.859,3.37l-0.38,0c-0.121,0 -0.22,-0.098 -0.22,-0.22l0,-1.534c-0.036,0.012 -0.076,0.013 -0.115,0.002c-0.106,-0.031 -0.167,-0.141 -0.136,-0.247l0.058,-0.203c0.031,-0.105 0.142,-0.167 0.247,-0.136c0.034,0.01 0.063,0.028 0.086,0.051l0.125,-0.55c0.001,-0.049 -0.073,0.079 0.041,-0.19c0.077,-0.183 0.263,-0.311 0.466,-0.318c0.767,-0.01 1.534,-0.032 2.301,-0.023c0.264,0.01 0.496,0.232 0.507,0.508l0.118,0.521c0.105,-0.029 0.214,0.032 0.245,0.137l0.058,0.203c0.031,0.106 -0.03,0.216 -0.136,0.247c-0.029,0.008 -0.058,0.01 -0.085,0.005l0,1.527c0,0.122 -0.099,0.22 -0.22,0.22l-0.38,0c-0.122,0 -0.221,-0.098 -0.221,-0.22l0,-0.419l-0.879,0l-1.26,0l0,0.419c0,0.122 -0.098,0.22 -0.22,0.22Zm1.98,-1.12l-1.41,0c-0.032,0 -0.057,0.025 -0.057,0.057l0,0.115c0,0.032 0.025,0.058 0.057,0.058l1.41,0c0.032,0 0.058,-0.026 0.058,-0.058l0,-0.115c0,-0.032 -0.026,-0.057 -0.058,-0.057Zm-1.868,-0.592c0.209,0 0.38,0.111 0.38,0.248c0,0.136 -0.171,0.248 -0.38,0.248c-0.21,0 -0.38,-0.112 -0.38,-0.248c0,-0.137 0.17,-0.248 0.38,-0.248Zm2.398,-0.046c0.209,0 0.379,0.111 0.379,0.248c0,0.137 -0.17,0.248 -0.379,0.248c-0.21,0 -0.38,-0.111 -0.38,-0.248c0,-0.137 0.17,-0.248 0.38,-0.248Zm-2.323,-1.379c-0.167,0.002 -0.312,0.142 -0.314,0.314l-0.172,0.772l3.244,-0.021l-0.172,-0.763c-0.012,-0.173 -0.138,-0.318 -0.305,-0.324c-0.761,-0.01 -1.521,0.015 -2.281,0.022Z" style="fill:#ec5d38;"/><g><ellipse cx="1.219" cy="0.867" rx="0.352" ry="0.359" style="fill:#ec5d38;"/><ellipse cx="3.049" cy="0.825" rx="0.352" ry="0.359" style="fill:#ec5d38;"/><ellipse cx="2.097" cy="0.612" rx="0.352" ry="0.359" style="fill:#ec5d38;"/></g></g></svg>