<?xml version="1.0" encoding="UTF-8" standalone="no"?><!DOCTYPE svg PUBLIC "-//W3C//DTD SVG 1.1//EN" "http://www.w3.org/Graphics/SVG/1.1/DTD/svg11.dtd"><svg width="100%" height="100%" viewBox="0 0 6 5" version="1.1" xmlns="http://www.w3.org/2000/svg" xmlns:xlink="http://www.w3.org/1999/xlink" xml:space="preserve" xmlns:serif="http://www.serif.com/" style="fill-rule:evenodd;clip-rule:evenodd;stroke-linejoin:round;stroke-miterlimit:2;"><path id="Mail-Icon" serif:id="Mail Icon" d="M5.4,4.56l-5.04,0c-0.199,0 -0.36,-0.161 -0.36,-0.36l0,-3.84c0,-0.199 0.161,-0.36 0.36,-0.36l5.04,0c0.199,0 0.36,0.161 0.36,0.36l0,3.84c0,0.199 -0.161,0.36 -0.36,0.36Zm-0.36,-0.72l0,-2.778l-1.985,1.987c-0.048,0.049 -0.112,0.072 -0.176,0.071c-0.064,0.001 -0.128,-0.022 -0.177,-0.071l-1.982,-1.985l0,2.776l4.32,0Zm-0.345,-3.12l-3.632,0l1.816,1.818l1.816,-1.818Z" style="fill:#5353a2;"/></svg>