<?xml version="1.0" encoding="UTF-8" standalone="no"?><!DOCTYPE svg PUBLIC "-//W3C//DTD SVG 1.1//EN" "http://www.w3.org/Graphics/SVG/1.1/DTD/svg11.dtd"><svg width="100%" height="100%" viewBox="0 0 8 8" version="1.1" xmlns="http://www.w3.org/2000/svg" xmlns:xlink="http://www.w3.org/1999/xlink" xml:space="preserve" xmlns:serif="http://www.serif.com/" style="fill-rule:evenodd;clip-rule:evenodd;stroke-linejoin:round;stroke-miterlimit:2;"><g><path d="M7.821,1.437c0,-0.793 -0.644,-1.437 -1.437,-1.437l-4.947,0c-0.793,0 -1.437,0.644 -1.437,1.437l0,2.874c0,0.793 0.644,1.437 1.437,1.437l0.014,0l0.922,1.591l0.825,-1.591l3.186,0c0.793,0 1.437,-0.644 1.437,-1.437l0,-2.874Z" style="fill:#0a0082;"/><g><path d="M4.388,1.803c0.187,0.11 0.426,0.044 0.533,-0.146c0.107,-0.19 0.043,-0.433 -0.144,-0.542c-0.187,-0.109 -0.426,-0.044 -0.533,0.146c-0.108,0.19 -0.043,0.433 0.144,0.542Z" style="fill:#fff;fill-rule:nonzero;"/><path d="M5.039,3.164c-0.021,0 -0.042,0.002 -0.063,0.004l-0.134,-0.644l0.041,-0.016c0.094,-0.037 0.141,-0.145 0.105,-0.24c-0.036,-0.096 -0.143,-0.144 -0.236,-0.107l-0.458,0.179l-0.022,-0.17c0.054,-0.119 0.046,-0.268 -0.046,-0.373c-0.19,-0.215 -0.419,-0.108 -0.49,-0.049l-0.94,0.789l0,0.001c-0.029,0.026 -0.053,0.059 -0.068,0.098c-0.019,0.049 -0.022,0.1 -0.013,0.148c-0.075,0.006 -0.134,0.069 -0.134,0.147c0.001,0.082 0.067,0.148 0.148,0.148l-0.059,0.143c-0.077,-0.021 -0.157,-0.033 -0.241,-0.032c-0.482,0.005 -0.87,0.407 -0.866,0.898c0.005,0.49 0.402,0.885 0.884,0.88c0.482,-0.005 0.871,-0.408 0.866,-0.898c-0.003,-0.326 -0.181,-0.61 -0.441,-0.762l0.095,-0.232l0.157,-0.001l0.537,0.215l-0.281,0.478c-0.072,0.124 -0.032,0.283 0.089,0.357c0.042,0.025 0.088,0.037 0.133,0.037c0.087,-0.001 0.17,-0.046 0.218,-0.127l0.256,-0.436l0.17,0.102c-0.047,0.111 -0.074,0.233 -0.072,0.361c0.005,0.49 0.401,0.885 0.883,0.88c0.482,-0.005 0.871,-0.407 0.866,-0.898c-0.005,-0.49 -0.401,-0.885 -0.884,-0.88Zm-2.594,1.581c-0.362,0.003 -0.659,-0.292 -0.662,-0.66c-0.004,-0.367 0.287,-0.669 0.649,-0.672c0.052,-0.001 0.103,0.007 0.152,0.018l-0.177,0.434c-0.104,0.015 -0.184,0.106 -0.183,0.216c0.001,0.12 0.098,0.216 0.216,0.215c0.078,0 0.145,-0.044 0.182,-0.107l0.461,-0.005c-0.049,0.315 -0.314,0.558 -0.638,0.561Zm0.636,-0.784l-0.461,0.005c-0.004,-0.006 -0.007,-0.011 -0.01,-0.016l0.177,-0.433c0.152,0.098 0.261,0.257 0.294,0.444Zm1.107,-0.553l0.067,-0.114c0.038,-0.066 0.047,-0.145 0.022,-0.218c-0.024,-0.072 -0.078,-0.13 -0.148,-0.158l-0.469,-0.188l0.285,-0.239l0.017,0.132c0.007,0.056 0.04,0.106 0.088,0.135c0.029,0.018 0.062,0.026 0.095,0.026c0.022,0 0.043,-0.004 0.064,-0.012l0.425,-0.167l0.127,0.609c-0.161,0.057 -0.301,0.161 -0.403,0.295l-0.17,-0.101Zm0.701,0.42l-0.339,-0.203c0.069,-0.083 0.157,-0.149 0.257,-0.189l0.082,0.392Zm0.166,0.891c-0.361,0.004 -0.658,-0.292 -0.662,-0.659c-0.001,-0.086 0.016,-0.168 0.044,-0.244l0.398,0.238c0,0.001 -0.001,0.001 -0.001,0.001c0.002,0.12 0.098,0.217 0.216,0.216c0.119,-0.002 0.213,-0.1 0.212,-0.22c-0.001,-0.094 -0.061,-0.173 -0.144,-0.203l-0.096,-0.459c0.007,0 0.013,-0.002 0.02,-0.002c0.361,-0.003 0.658,0.292 0.662,0.66c0.003,0.367 -0.288,0.669 -0.649,0.672Z" style="fill:#fff;fill-rule:nonzero;"/></g></g></svg>