<?xml version="1.0" encoding="UTF-8" standalone="no"?><!DOCTYPE svg PUBLIC "-//W3C//DTD SVG 1.1//EN" "http://www.w3.org/Graphics/SVG/1.1/DTD/svg11.dtd"><svg width="100%" height="100%" viewBox="0 0 6 6" version="1.1" xmlns="http://www.w3.org/2000/svg" xmlns:xlink="http://www.w3.org/1999/xlink" xml:space="preserve" xmlns:serif="http://www.serif.com/" style="fill-rule:evenodd;clip-rule:evenodd;stroke-linejoin:round;stroke-miterlimit:2;"><path id="Info-Circle-Icon" serif:id="Info Circle Icon" d="M2.76,0c-1.524,0 -2.76,1.236 -2.76,2.76c0,1.524 1.236,2.76 2.76,2.76c1.524,0 2.76,-1.236 2.76,-2.76c0,-1.524 -1.236,-2.76 -2.76,-2.76Zm0.36,3.96c0,0.199 -0.161,0.36 -0.36,0.36c-0.199,0 -0.36,-0.161 -0.36,-0.36l0,-1.44c0,-0.199 0.161,-0.36 0.36,-0.36c0.199,0 0.36,0.161 0.36,0.36l0,1.44Zm-0.36,-2.04c-0.199,0 -0.36,-0.161 -0.36,-0.36c0,-0.199 0.161,-0.36 0.36,-0.36c0.199,0 0.36,0.161 0.36,0.36c0,0.199 -0.161,0.36 -0.36,0.36Z" style="fill:#5353a2;"/></svg>