<?xml version="1.0" encoding="UTF-8" standalone="no"?><!DOCTYPE svg PUBLIC "-//W3C//DTD SVG 1.1//EN" "http://www.w3.org/Graphics/SVG/1.1/DTD/svg11.dtd"><svg width="100%" height="100%" viewBox="0 0 5 5" version="1.1" xmlns="http://www.w3.org/2000/svg" xmlns:xlink="http://www.w3.org/1999/xlink" xml:space="preserve" xmlns:serif="http://www.serif.com/" style="fill-rule:evenodd;clip-rule:evenodd;stroke-linejoin:round;stroke-miterlimit:2;"><g><path id="Logos" d="M4.966,2.489c0,-1.378 -1.111,-2.489 -2.489,-2.489c-1.372,0 -2.477,1.111 -2.477,2.489c0,1.372 1.105,2.477 2.477,2.477c1.378,0 2.489,-1.105 2.489,-2.477Zm-0.367,0c0,1.167 -0.949,2.111 -2.122,2.111c-1.167,0 -2.111,-0.944 -2.111,-2.111c0,-1.173 0.944,-2.123 2.111,-2.123c1.173,0 2.122,0.95 2.122,2.123Z" style="fill:#ff8b66;fill-rule:nonzero;"/><path d="M3.694,3.552l-0.292,0l0,-1.905l-0.753,1.905l-0.319,0l-0.766,-1.893l0,1.893l-0.292,0l0,-2.138l0.511,0l0.713,1.76l0.697,-1.76l0.501,0l0,2.138Z" style="fill:#ff8b66;fill-rule:nonzero;"/></g></svg>