<?xml version="1.0" encoding="UTF-8" standalone="no"?><!DOCTYPE svg PUBLIC "-//W3C//DTD SVG 1.1//EN" "http://www.w3.org/Graphics/SVG/1.1/DTD/svg11.dtd"><svg width="100%" height="100%" viewBox="0 0 19 19" version="1.1" xmlns="http://www.w3.org/2000/svg" xmlns:xlink="http://www.w3.org/1999/xlink" xml:space="preserve" xmlns:serif="http://www.serif.com/" style="fill-rule:evenodd;clip-rule:evenodd;stroke-linejoin:round;stroke-miterlimit:2;"><ellipse cx="9.215" cy="9.148" rx="9.215" ry="9.148" style="fill:#7ed0df;"/><g><path d="M4.099,13.228l-0.762,0l-0.189,1.092l-0.893,0l0.517,-2.941l1.835,0l-0.25,0.753l-0.828,0l-0.065,0.395l0.762,0l-0.127,0.701Z" style="fill:#ff8b66;fill-rule:nonzero;"/><path d="M4.48,14.32l0.39,-2.235l0.918,-0.118l-0.414,2.353l-0.894,0Zm0.428,-2.668c0,-0.182 0.048,-0.312 0.143,-0.39c0.096,-0.079 0.235,-0.118 0.417,-0.118c0.182,0 0.305,0.02 0.369,0.059c0.064,0.039 0.096,0.104 0.096,0.195c0,0.185 -0.041,0.315 -0.124,0.388c-0.083,0.074 -0.221,0.111 -0.414,0.111c-0.193,0 -0.322,-0.018 -0.388,-0.054c-0.066,-0.036 -0.099,-0.1 -0.099,-0.191Z" style="fill:#ff8b66;fill-rule:nonzero;"/><path d="M6.305,11.967l0.447,0l0.202,0.264c0.204,-0.169 0.443,-0.281 0.715,-0.334l-0.098,0.889c-0.073,0.003 -0.17,0.022 -0.292,0.056c-0.122,0.035 -0.209,0.079 -0.259,0.132l-0.235,1.346l-0.894,0l0.414,-2.353Z" style="fill:#ff8b66;fill-rule:nonzero;"/><path d="M7.867,12.932c0,-0.336 0.098,-0.592 0.294,-0.769c0.196,-0.178 0.486,-0.266 0.87,-0.266c0.385,0 0.71,0.048 0.977,0.146l-0.217,0.64c-0.216,-0.069 -0.442,-0.104 -0.677,-0.104c-0.076,0 -0.179,0.006 -0.311,0.019l-0.028,0.15c0.405,0 0.69,0.053 0.856,0.158c0.166,0.105 0.25,0.256 0.25,0.454c0,0.687 -0.394,1.03 -1.181,1.03c-0.468,0 -0.839,-0.045 -1.115,-0.136l0.226,-0.668c0.241,0.081 0.505,0.122 0.79,0.122c0.138,0 0.262,-0.006 0.372,-0.019l0.028,-0.15c-0.414,0 -0.707,-0.05 -0.878,-0.148c-0.171,-0.099 -0.256,-0.252 -0.256,-0.459Z" style="fill:#ff8b66;fill-rule:nonzero;"/><path d="M10.313,12.574l0.109,-0.607l0.221,0l0.066,-0.376l0.936,-0.235l-0.108,0.611l0.31,0l-0.108,0.607l-0.311,0l-0.188,1.073c0.079,0.016 0.165,0.027 0.259,0.033l-0.16,0.691c-0.439,0 -0.721,-0.029 -0.847,-0.089c-0.132,-0.066 -0.197,-0.168 -0.197,-0.306c0,-0.015 0.003,-0.048 0.009,-0.099l0.23,-1.303l-0.221,0Z" style="fill:#ff8b66;fill-rule:nonzero;"/></g><path d="M18.356,10.969c-0.184,0.18 -0.368,0.355 -0.551,0.526c-0.661,0.615 -1.286,1.112 -1.875,1.491c-0.384,0.253 -0.783,0.446 -1.198,0.58c-0.414,0.134 -0.802,0.158 -1.162,0.071c-0.361,-0.087 -0.682,-0.3 -0.964,-0.639c-0.283,-0.339 -0.484,-0.856 -0.604,-1.551c-0.096,-0.52 -0.135,-1.081 -0.117,-1.68c0.018,-0.6 0.069,-1.204 0.153,-1.811c0.084,-0.608 0.189,-1.204 0.315,-1.788c0.126,-0.583 0.25,-1.12 0.37,-1.609c0.144,-0.537 0.216,-0.994 0.216,-1.373c0.024,-0.521 -0.069,-0.841 -0.279,-0.959c-0.211,-0.118 -0.478,-0.043 -0.802,0.225c-0.217,0.189 -0.454,0.462 -0.712,0.817c-0.258,0.355 -0.52,0.749 -0.784,1.183c-0.264,0.434 -0.532,0.896 -0.802,1.385c-0.27,0.489 -0.532,0.971 -0.784,1.444c-0.384,0.71 -0.736,1.349 -1.054,1.918c-0.319,0.568 -0.598,0.939 -0.838,1.112c-0.204,0.174 -0.376,0.19 -0.514,0.047c-0.138,-0.142 -0.219,-0.355 -0.243,-0.639c-0.024,-0.236 -0.018,-0.501 0.018,-0.793c0.036,-0.292 0.072,-0.532 0.108,-0.722c0.12,-0.663 0.201,-1.266 0.243,-1.811c0.042,-0.544 0.033,-0.982 -0.027,-1.313c-0.024,-0.158 -0.06,-0.281 -0.108,-0.367c-0.048,-0.087 -0.138,-0.083 -0.27,0.011c-0.156,0.127 -0.346,0.363 -0.568,0.711c-0.222,0.347 -0.489,0.852 -0.802,1.515c-0.108,0.221 -0.231,0.501 -0.369,0.84c-0.138,0.339 -0.283,0.683 -0.433,1.03c-0.15,0.347 -0.303,0.667 -0.459,0.959c-0.156,0.291 -0.301,0.493 -0.433,0.603c-0.108,0.095 -0.204,0.134 -0.288,0.119c-0.084,-0.016 -0.159,-0.068 -0.225,-0.154c-0.066,-0.087 -0.124,-0.194 -0.172,-0.32c-0.048,-0.126 -0.078,-0.26 -0.09,-0.402c-0.048,-0.363 -0.045,-0.726 0.009,-1.089c0.054,-0.363 0.111,-0.726 0.172,-1.089c0.024,-0.158 0.066,-0.379 0.126,-0.663c0.06,-0.284 0.12,-0.572 0.18,-0.864c0.06,-0.292 0.114,-0.564 0.162,-0.817c0.048,-0.252 0.072,-0.426 0.072,-0.521c0.036,-0.142 0.096,-0.24 0.18,-0.295c0.084,-0.056 0.175,-0.044 0.271,0.035c0.096,0.079 0.195,0.217 0.297,0.414c0.102,0.198 0.141,0.359 0.117,0.486c-0.168,0.757 -0.309,1.515 -0.423,2.272c-0.114,0.758 -0.238,1.523 -0.37,2.296c0.253,-0.41 0.487,-0.903 0.703,-1.479c0.216,-0.576 0.439,-1.101 0.667,-1.574c0.324,-0.711 0.613,-1.255 0.865,-1.634c0.252,-0.379 0.474,-0.639 0.667,-0.781c0.204,-0.158 0.417,-0.241 0.639,-0.248c0.223,-0.008 0.43,0.09 0.622,0.295c0.24,0.269 0.385,0.612 0.433,1.03c0.048,0.418 0.042,0.817 -0.018,1.196c-0.084,0.536 -0.19,1.073 -0.316,1.609c-0.126,0.537 -0.255,1.058 -0.387,1.563c0.168,-0.221 0.387,-0.576 0.658,-1.066c0.27,-0.489 0.567,-1.041 0.892,-1.657c0.264,-0.489 0.537,-0.99 0.82,-1.503c0.282,-0.513 0.564,-0.998 0.847,-1.456c0.282,-0.457 0.561,-0.872 0.838,-1.242c0.276,-0.371 0.54,-0.651 0.793,-0.841c0.18,-0.158 0.39,-0.26 0.63,-0.308c0.241,-0.047 0.463,-0.031 0.667,0.048c0.24,0.094 0.421,0.252 0.541,0.473c0.12,0.221 0.198,0.47 0.234,0.746c0.036,0.276 0.042,0.564 0.018,0.864c-0.024,0.3 -0.066,0.576 -0.126,0.828c-0.421,1.768 -0.694,3.224 -0.82,4.368c-0.126,1.144 -0.135,2.048 -0.027,2.71c0.084,0.537 0.231,0.916 0.441,1.137c0.211,0.221 0.454,0.335 0.73,0.343c0.277,0.008 0.568,-0.059 0.874,-0.201c0.307,-0.142 0.598,-0.3 0.874,-0.474c0.577,-0.363 1.19,-0.848 1.838,-1.455c0.074,-0.069 0.147,-0.138 0.22,-0.209l0,0.097l0.494,0Z" style="fill:#fff;fill-rule:nonzero;"/></svg>