<?xml version="1.0" encoding="UTF-8" standalone="no"?><!DOCTYPE svg PUBLIC "-//W3C//DTD SVG 1.1//EN" "http://www.w3.org/Graphics/SVG/1.1/DTD/svg11.dtd"><svg width="100%" height="100%" viewBox="0 0 34 14" version="1.1" xmlns="http://www.w3.org/2000/svg" xmlns:xlink="http://www.w3.org/1999/xlink" xml:space="preserve" xmlns:serif="http://www.serif.com/" style="fill-rule:evenodd;clip-rule:evenodd;stroke-linejoin:round;stroke-miterlimit:2;"><g><g><path d="M11.716,6.687c0,-0.555 0.016,-0.927 0.049,-1.115c0.035,-0.188 0.089,-0.34 0.161,-0.456c0.116,-0.22 0.301,-0.417 0.557,-0.59c0.251,-0.174 0.565,-0.264 0.941,-0.268c0.38,0.004 0.697,0.094 0.951,0.268c0.251,0.173 0.432,0.37 0.544,0.59c0.081,0.116 0.136,0.268 0.167,0.456c0.029,0.188 0.043,0.56 0.043,1.115c0,0.546 -0.014,0.915 -0.043,1.108c-0.031,0.192 -0.086,0.346 -0.167,0.462c-0.112,0.221 -0.293,0.415 -0.544,0.584c-0.254,0.174 -0.571,0.266 -0.951,0.275c-0.376,-0.009 -0.69,-0.101 -0.941,-0.275c-0.256,-0.169 -0.441,-0.363 -0.557,-0.584c-0.035,-0.072 -0.067,-0.141 -0.095,-0.206c-0.026,-0.068 -0.048,-0.153 -0.066,-0.256c-0.033,-0.193 -0.049,-0.562 -0.049,-1.108Zm0.728,0c0,0.47 0.017,0.788 0.052,0.954c0.031,0.166 0.093,0.3 0.187,0.403c0.077,0.098 0.177,0.178 0.302,0.239c0.122,0.072 0.269,0.108 0.439,0.108c0.173,0 0.322,-0.036 0.449,-0.108c0.12,-0.061 0.217,-0.141 0.289,-0.239c0.094,-0.103 0.158,-0.237 0.193,-0.403c0.033,-0.166 0.049,-0.484 0.049,-0.954c0,-0.47 -0.016,-0.79 -0.049,-0.961c-0.035,-0.162 -0.099,-0.294 -0.193,-0.396c-0.072,-0.099 -0.169,-0.181 -0.289,-0.246c-0.127,-0.064 -0.276,-0.098 -0.449,-0.102c-0.17,0.004 -0.317,0.038 -0.439,0.102c-0.125,0.065 -0.225,0.147 -0.302,0.246c-0.094,0.102 -0.156,0.234 -0.187,0.396c-0.035,0.171 -0.052,0.491 -0.052,0.961Z" style="fill:#5353a2;fill-rule:nonzero;"/><path d="M15.974,4.297l1.853,0c0.47,0.004 0.823,0.122 1.059,0.354c0.238,0.234 0.357,0.543 0.357,0.928c0.004,0.196 -0.043,0.384 -0.141,0.564c-0.05,0.085 -0.122,0.166 -0.216,0.242c-0.094,0.081 -0.21,0.154 -0.348,0.22l0,0.013c0.26,0.068 0.457,0.204 0.59,0.41c0.125,0.212 0.187,0.442 0.187,0.691c-0.004,0.413 -0.133,0.74 -0.387,0.981c-0.251,0.251 -0.565,0.377 -0.941,0.377l-2.013,0l0,-4.78Zm0.725,2.659l0,1.435l1.115,0c0.268,-0.004 0.465,-0.077 0.59,-0.219c0.124,-0.14 0.187,-0.306 0.187,-0.498c0,-0.197 -0.063,-0.365 -0.187,-0.505c-0.125,-0.138 -0.322,-0.209 -0.59,-0.213l-1.115,0Zm0,-2.013l0,1.367l1.046,0c0.264,0 0.459,-0.069 0.583,-0.207c0.127,-0.127 0.19,-0.286 0.19,-0.478c0,-0.193 -0.063,-0.356 -0.19,-0.489c-0.124,-0.124 -0.319,-0.189 -0.583,-0.193l-1.046,0Z" style="fill:#5353a2;fill-rule:nonzero;"/><rect x="20.069" y="4.297" width="0.724" height="4.78" style="fill:#5353a2;fill-rule:nonzero;"/><path d="M21.8,4.297l0.724,0l0,4.094l2.328,0l0,0.686l-3.052,0l0,-4.78Z" style="fill:#5353a2;fill-rule:nonzero;"/><rect x="25.534" y="4.297" width="0.724" height="4.78" style="fill:#5353a2;fill-rule:nonzero;"/><path d="M28.075,4.943l-1.308,0l0,-0.646l3.343,0l0,0.646l-1.308,0l0,4.134l-0.727,0l0,-4.134Z" style="fill:#5353a2;fill-rule:nonzero;"/><path d="M30.622,4.297l3.052,0l0,0.685l-2.328,0l0,1.364l1.987,0l0,0.642l-1.987,0l0,1.403l2.328,0l0,0.686l-3.052,0l0,-4.78Zm1.691,-1.213l0.902,0l-0.954,0.98l-0.564,0l0.616,-0.98Z" style="fill:#5353a2;fill-rule:nonzero;"/></g><g><path d="M25.922,12.131l-0.762,0l-0.188,1.092l-0.894,0l0.518,-2.941l1.835,0l-0.25,0.753l-0.828,0l-0.066,0.395l0.762,0l-0.127,0.701Z" style="fill:#ff8b66;fill-rule:nonzero;"/><path d="M26.304,13.223l0.39,-2.235l0.917,-0.118l-0.414,2.353l-0.893,0Zm0.428,-2.668c0,-0.182 0.047,-0.312 0.143,-0.39c0.096,-0.079 0.235,-0.118 0.416,-0.118c0.182,0 0.305,0.02 0.37,0.059c0.064,0.039 0.096,0.104 0.096,0.195c0,0.185 -0.041,0.315 -0.124,0.388c-0.084,0.074 -0.222,0.111 -0.414,0.111c-0.193,0 -0.323,-0.018 -0.389,-0.054c-0.065,-0.036 -0.098,-0.1 -0.098,-0.191Z" style="fill:#ff8b66;fill-rule:nonzero;"/><path d="M28.129,10.87l0.447,0l0.202,0.264c0.204,-0.169 0.442,-0.281 0.715,-0.334l-0.099,0.889c-0.072,0.003 -0.169,0.022 -0.291,0.056c-0.123,0.035 -0.209,0.079 -0.259,0.132l-0.235,1.346l-0.894,0l0.414,-2.353Z" style="fill:#ff8b66;fill-rule:nonzero;"/><path d="M29.691,11.835c0,-0.336 0.098,-0.592 0.294,-0.769c0.196,-0.178 0.486,-0.266 0.87,-0.266c0.384,0 0.71,0.048 0.976,0.146l-0.216,0.64c-0.217,-0.069 -0.442,-0.104 -0.678,-0.104c-0.075,0 -0.178,0.006 -0.31,0.019l-0.028,0.15c0.404,0 0.69,0.053 0.856,0.158c0.166,0.105 0.249,0.256 0.249,0.454c0,0.687 -0.393,1.03 -1.181,1.03c-0.467,0 -0.839,-0.045 -1.115,-0.136l0.226,-0.668c0.242,0.081 0.505,0.122 0.791,0.122c0.138,0 0.262,-0.006 0.371,-0.019l0.029,-0.15c-0.414,0 -0.707,-0.05 -0.878,-0.148c-0.171,-0.099 -0.256,-0.252 -0.256,-0.459Z" style="fill:#ff8b66;fill-rule:nonzero;"/><path d="M32.137,11.477l0.108,-0.607l0.221,0l0.066,-0.376l0.936,-0.235l-0.108,0.611l0.311,0l-0.108,0.607l-0.311,0l-0.188,1.073c0.078,0.016 0.165,0.027 0.259,0.033l-0.16,0.691c-0.439,0 -0.722,-0.029 -0.847,-0.089c-0.132,-0.066 -0.198,-0.168 -0.198,-0.306c0,-0.015 0.003,-0.048 0.01,-0.099l0.23,-1.303l-0.221,0Z" style="fill:#ff8b66;fill-rule:nonzero;"/></g><path d="M16.026,9.41c-0.147,0.142 -0.293,0.281 -0.44,0.417c-0.66,0.615 -1.285,1.113 -1.874,1.491c-0.384,0.253 -0.784,0.446 -1.198,0.58c-0.415,0.134 -0.802,0.158 -1.163,0.071c-0.36,-0.086 -0.682,-0.3 -0.964,-0.639c-0.282,-0.339 -0.483,-0.856 -0.604,-1.55c-0.096,-0.521 -0.135,-1.081 -0.117,-1.681c0.018,-0.6 0.069,-1.203 0.153,-1.811c0.085,-0.608 0.19,-1.203 0.316,-1.787c0.126,-0.584 0.249,-1.121 0.369,-1.61c0.144,-0.537 0.217,-0.994 0.217,-1.373c0.024,-0.521 -0.07,-0.84 -0.28,-0.959c-0.21,-0.118 -0.477,-0.043 -0.802,0.225c-0.216,0.19 -0.453,0.462 -0.712,0.817c-0.258,0.355 -0.519,0.749 -0.783,1.183c-0.265,0.434 -0.532,0.896 -0.802,1.385c-0.271,0.49 -0.532,0.971 -0.784,1.444c-0.385,0.71 -0.736,1.35 -1.055,1.918c-0.318,0.568 -0.597,0.939 -0.838,1.112c-0.204,0.174 -0.375,0.19 -0.513,0.048c-0.138,-0.142 -0.219,-0.355 -0.244,-0.639c-0.024,-0.237 -0.018,-0.502 0.019,-0.793c0.036,-0.292 0.072,-0.533 0.108,-0.722c0.12,-0.663 0.201,-1.267 0.243,-1.811c0.042,-0.545 0.033,-0.983 -0.027,-1.314c-0.024,-0.158 -0.06,-0.28 -0.108,-0.367c-0.048,-0.087 -0.138,-0.083 -0.271,0.012c-0.156,0.126 -0.345,0.363 -0.567,0.71c-0.222,0.347 -0.49,0.852 -0.802,1.515c-0.108,0.221 -0.231,0.501 -0.37,0.84c-0.138,0.34 -0.282,0.683 -0.432,1.03c-0.15,0.347 -0.303,0.667 -0.46,0.959c-0.156,0.292 -0.3,0.493 -0.432,0.603c-0.108,0.095 -0.204,0.135 -0.289,0.119c-0.084,-0.016 -0.159,-0.067 -0.225,-0.154c-0.066,-0.087 -0.123,-0.193 -0.171,-0.32c-0.048,-0.126 -0.078,-0.26 -0.09,-0.402c-0.048,-0.363 -0.045,-0.726 0.009,-1.089c0.054,-0.363 0.111,-0.726 0.171,-1.089c0.024,-0.158 0.066,-0.379 0.126,-0.663c0.06,-0.284 0.12,-0.572 0.18,-0.864c0.061,-0.292 0.115,-0.564 0.163,-0.817c0.048,-0.252 0.072,-0.426 0.072,-0.52c0.036,-0.142 0.096,-0.241 0.18,-0.296c0.084,-0.055 0.174,-0.044 0.27,0.035c0.096,0.079 0.196,0.217 0.298,0.415c0.102,0.197 0.141,0.359 0.117,0.485c-0.168,0.757 -0.31,1.515 -0.424,2.272c-0.114,0.758 -0.237,1.523 -0.369,2.297c0.252,-0.411 0.486,-0.904 0.703,-1.48c0.216,-0.576 0.438,-1.101 0.666,-1.574c0.325,-0.71 0.613,-1.255 0.865,-1.634c0.253,-0.378 0.475,-0.639 0.667,-0.781c0.205,-0.158 0.418,-0.24 0.64,-0.248c0.222,-0.008 0.43,0.09 0.622,0.296c0.24,0.268 0.384,0.611 0.432,1.029c0.048,0.419 0.042,0.817 -0.018,1.196c-0.084,0.536 -0.189,1.073 -0.315,1.61c-0.126,0.536 -0.255,1.057 -0.388,1.562c0.169,-0.221 0.388,-0.576 0.658,-1.065c0.271,-0.49 0.568,-1.042 0.892,-1.657c0.265,-0.49 0.538,-0.991 0.82,-1.504c0.283,-0.513 0.565,-0.998 0.847,-1.455c0.283,-0.458 0.562,-0.872 0.838,-1.243c0.277,-0.371 0.541,-0.651 0.793,-0.841c0.18,-0.157 0.391,-0.26 0.631,-0.307c0.24,-0.048 0.462,-0.032 0.667,0.047c0.24,0.095 0.42,0.252 0.54,0.473c0.12,0.221 0.199,0.47 0.235,0.746c0.036,0.276 0.042,0.564 0.018,0.864c-0.024,0.3 -0.066,0.576 -0.127,0.829c-0.42,1.767 -0.693,3.223 -0.819,4.367c-0.127,1.144 -0.136,2.048 -0.028,2.711c0.085,0.536 0.232,0.915 0.442,1.136c0.21,0.221 0.454,0.335 0.73,0.343c0.276,0.008 0.568,-0.059 0.874,-0.201c0.306,-0.142 0.598,-0.3 0.874,-0.473c0.577,-0.363 1.189,-0.849 1.838,-1.456l0.003,-0.003l0.599,0Zm4.787,-5.497l-0.502,0c0.267,-0.34 0.524,-0.673 0.772,-0.998c0.096,-0.127 0.186,-0.134 0.27,-0.024c0.084,0.11 0.078,0.221 -0.018,0.331c-0.169,0.227 -0.343,0.457 -0.522,0.691Z" style="fill:#fff;fill-rule:nonzero;"/></g></svg>