<?xml version="1.0" encoding="UTF-8" standalone="no"?><!DOCTYPE svg PUBLIC "-//W3C//DTD SVG 1.1//EN" "http://www.w3.org/Graphics/SVG/1.1/DTD/svg11.dtd"><svg width="100%" height="100%" viewBox="0 0 4 5" version="1.1" xmlns="http://www.w3.org/2000/svg" xmlns:xlink="http://www.w3.org/1999/xlink" xml:space="preserve" xmlns:serif="http://www.serif.com/" style="fill-rule:evenodd;clip-rule:evenodd;stroke-linejoin:round;stroke-miterlimit:2;"><g><path d="M2.509,1.916c0.011,-0.015 0.016,-0.026 0.018,-0.031c-0.01,-0.005 -0.022,-0.015 -0.09,-0.015c-0.038,0 -0.086,0.002 -0.137,0.008c0.062,0.048 0.077,0.072 0.117,0.072c0.018,0 0.069,-0.001 0.092,-0.034Z" style="fill:#ff8b66;fill-rule:nonzero;"/><path d="M1.065,2.476c0.011,-0.004 0.077,-0.034 0.2,-0.261c-0.162,0.091 -0.228,0.166 -0.233,0.209c-0.001,0.007 -0.003,0.025 0.033,0.052Z" style="fill:#ff8b66;fill-rule:nonzero;"/><path d="M3.414,2.959l0,-1.898c0,-0.059 -0.007,-0.102 -0.041,-0.136l-0.883,-0.883c-0.027,-0.027 -0.064,-0.042 -0.101,-0.042l-2.202,0c-0.09,0 -0.187,0.069 -0.187,0.222l0,2.737l3.414,0Zm-1.062,-2.702c0,-0.034 0.042,-0.052 0.067,-0.027l0.766,0.766c0.024,0.024 0.007,0.066 -0.028,0.066l-0.805,0l0,-0.805Zm-1.447,2.152c0.014,-0.123 0.167,-0.252 0.454,-0.384c0.115,-0.25 0.223,-0.558 0.288,-0.816c-0.076,-0.165 -0.149,-0.378 -0.096,-0.504c0.019,-0.044 0.042,-0.077 0.086,-0.092c0.017,-0.006 0.061,-0.013 0.077,-0.013c0.039,0 0.072,0.049 0.096,0.08c0.022,0.028 0.073,0.089 -0.028,0.516c0.102,0.211 0.247,0.426 0.386,0.573c0.099,-0.018 0.185,-0.027 0.254,-0.027c0.119,0 0.191,0.028 0.221,0.085c0.024,0.047 0.014,0.102 -0.03,0.164c-0.042,0.059 -0.1,0.09 -0.168,0.09c-0.093,0 -0.2,-0.058 -0.32,-0.173c-0.215,0.045 -0.467,0.125 -0.67,0.214c-0.063,0.135 -0.124,0.243 -0.18,0.322c-0.078,0.11 -0.145,0.16 -0.212,0.16c-0.026,0 -0.051,-0.008 -0.073,-0.024c-0.079,-0.06 -0.09,-0.126 -0.085,-0.171Z" style="fill:#ff8b66;fill-rule:nonzero;"/><path d="M1.117,3.479c-0.011,-0.014 -0.026,-0.027 -0.045,-0.037c-0.019,-0.01 -0.045,-0.015 -0.077,-0.015l-0.093,0l0,0.303l0.114,0c0.015,0 0.03,-0.003 0.045,-0.008c0.015,-0.005 0.029,-0.014 0.041,-0.025c0.012,-0.012 0.022,-0.028 0.03,-0.05c0.008,-0.021 0.011,-0.047 0.011,-0.078c0,-0.012 -0.001,-0.027 -0.005,-0.043c-0.003,-0.016 -0.01,-0.032 -0.021,-0.047Z" style="fill:#5353a2;fill-rule:nonzero;"/><path d="M0,3.111l0,1.138c0,0.076 0.093,0.152 0.187,0.152l3.04,0c0.095,0 0.187,-0.076 0.187,-0.152l0,-1.138l-3.414,0Zm1.244,0.563c-0.013,0.032 -0.031,0.058 -0.055,0.08c-0.024,0.021 -0.052,0.038 -0.085,0.05c-0.033,0.011 -0.07,0.017 -0.11,0.017l-0.092,0l0,0.276l-0.125,0l0,-0.764l0.22,0c0.033,0 0.065,0.005 0.096,0.015c0.032,0.011 0.061,0.026 0.086,0.047c0.025,0.021 0.046,0.046 0.061,0.075c0.016,0.029 0.024,0.062 0.024,0.099c0,0.039 -0.007,0.074 -0.02,0.105Zm0.763,0.181c-0.014,0.045 -0.031,0.082 -0.051,0.112c-0.021,0.03 -0.044,0.054 -0.07,0.071c-0.026,0.017 -0.051,0.03 -0.076,0.039c-0.024,0.009 -0.046,0.014 -0.066,0.017c-0.02,0.002 -0.035,0.003 -0.045,0.003l-0.289,0l0,-0.764l0.23,0c0.065,0 0.121,0.01 0.17,0.03c0.049,0.021 0.089,0.048 0.121,0.082c0.032,0.033 0.056,0.072 0.072,0.115c0.016,0.043 0.024,0.088 0.024,0.134c0,0.063 -0.006,0.116 -0.02,0.161Zm0.679,-0.428l-0.352,0l0,0.241l0.32,0l0,0.085l-0.32,0l0,0.344l-0.126,0l0,-0.764l0.478,0l0,0.094Z" style="fill:#5353a2;fill-rule:nonzero;"/><path d="M1.733,1.379c-0.054,0.188 -0.126,0.39 -0.203,0.574c0.159,-0.062 0.331,-0.115 0.493,-0.153c-0.102,-0.119 -0.205,-0.268 -0.29,-0.421Z" style="fill:#ff8b66;fill-rule:nonzero;"/><path d="M1.841,3.512c-0.022,-0.026 -0.051,-0.046 -0.089,-0.062c-0.037,-0.015 -0.085,-0.023 -0.145,-0.023l-0.072,0l0,0.579l0.123,0c0.084,0 0.145,-0.027 0.183,-0.081c0.037,-0.054 0.056,-0.132 0.056,-0.235c0,-0.031 -0.004,-0.063 -0.012,-0.094c-0.008,-0.031 -0.022,-0.059 -0.044,-0.084Z" style="fill:#5353a2;fill-rule:nonzero;"/><path d="M1.687,0.737c-0.007,0.002 -0.101,0.133 0.007,0.244c0.072,-0.161 -0.004,-0.245 -0.007,-0.244Z" style="fill:#ff8b66;fill-rule:nonzero;"/></g></svg>