<?xml version="1.0" encoding="UTF-8" standalone="no"?><!DOCTYPE svg PUBLIC "-//W3C//DTD SVG 1.1//EN" "http://www.w3.org/Graphics/SVG/1.1/DTD/svg11.dtd"><svg width="100%" height="100%" viewBox="0 0 5 6" version="1.1" xmlns="http://www.w3.org/2000/svg" xmlns:xlink="http://www.w3.org/1999/xlink" xml:space="preserve" xmlns:serif="http://www.serif.com/" style="fill-rule:evenodd;clip-rule:evenodd;stroke-linejoin:round;stroke-miterlimit:2;"><path id="Lock-Icon" serif:id="Lock Icon" d="M4.44,5.76l-4.08,0c-0.199,0 -0.36,-0.161 -0.36,-0.36l0,-2.88c0,-0.199 0.161,-0.36 0.36,-0.36l0.6,0l0,-0.72c0,-0.795 0.645,-1.44 1.44,-1.44c0.795,0 1.44,0.645 1.44,1.44l0,0.72l0.6,0c0.199,0 0.36,0.161 0.36,0.36l0,2.88c0,0.199 -0.161,0.36 -0.36,0.36Zm-2.4,-0.96l0.72,0l-0.188,-0.753c0.18,-0.069 0.308,-0.243 0.308,-0.447c0,-0.265 -0.215,-0.48 -0.48,-0.48c-0.265,0 -0.48,0.215 -0.48,0.48c0,0.204 0.128,0.378 0.308,0.447l-0.188,0.753Zm1.32,-3.36c0,-0.53 -0.43,-0.96 -0.96,-0.96c-0.53,0 -0.96,0.43 -0.96,0.96l0,0.72l1.92,0l0,-0.72Z" style="fill:#5353a2;"/></svg>