<?xml version="1.0" encoding="UTF-8" standalone="no"?><!DOCTYPE svg PUBLIC "-//W3C//DTD SVG 1.1//EN" "http://www.w3.org/Graphics/SVG/1.1/DTD/svg11.dtd"><svg width="100%" height="100%" viewBox="0 0 7 4" version="1.1" xmlns="http://www.w3.org/2000/svg" xmlns:xlink="http://www.w3.org/1999/xlink" xml:space="preserve" xmlns:serif="http://www.serif.com/" style="fill-rule:evenodd;clip-rule:evenodd;stroke-linejoin:round;stroke-miterlimit:2;"><path d="M5.348,0c0.492,0 0.892,0.4 0.892,0.893l0.411,1.785c0,0.492 -0.4,0.892 -0.892,0.892l-4.866,0c-0.493,0 -0.893,-0.4 -0.893,-0.892l0.411,-1.785c0,-0.493 0.4,-0.893 0.893,-0.893l4.044,0Zm0.424,2.582l0,-1.334l-0.316,0l0,1.334l0.316,0Zm-4.152,0l0,-1.102l0.476,0l0,-0.232l-1.268,0l0,0.232l0.476,0l0,1.102l0.316,0Zm2.501,-1.334l-0.348,0l0.564,0.654l-0.593,0.68l0.341,0l0.418,-0.489l0.425,0.489l0.348,0l-0.593,-0.686l0.564,-0.648l-0.341,0l-0.389,0.456l-0.396,-0.456Zm-0.401,1.334l-0.633,-1.334l-0.37,0l-0.633,1.334l0.316,0l0.14,-0.303l0.712,0l0.14,0.303l0.328,0Zm-0.566,-0.517l-0.257,-0.568l-0.259,0.568l0.516,0Z" style="fill:#ff8b66;"/></svg>