<?xml version="1.0" encoding="UTF-8" standalone="no"?><!DOCTYPE svg PUBLIC "-//W3C//DTD SVG 1.1//EN" "http://www.w3.org/Graphics/SVG/1.1/DTD/svg11.dtd"><svg width="100%" height="100%" viewBox="0 0 8 8" version="1.1" xmlns="http://www.w3.org/2000/svg" xmlns:xlink="http://www.w3.org/1999/xlink" xml:space="preserve" xmlns:serif="http://www.serif.com/" style="fill-rule:evenodd;clip-rule:evenodd;stroke-linejoin:round;stroke-miterlimit:2;"><g><path d="M7.821,1.437c0,-0.793 -0.644,-1.437 -1.437,-1.437l-4.947,0c-0.793,0 -1.437,0.644 -1.437,1.437l0,2.874c0,0.793 0.644,1.437 1.437,1.437l0.014,0l0.922,1.591l0.825,-1.591l3.186,0c0.793,0 1.437,-0.644 1.437,-1.437l0,-2.874Z" style="fill:#0a0082;"/><path id="Logos" d="M6.221,2.827c0,-1.351 -1.089,-2.44 -2.439,-2.44c-1.345,0 -2.428,1.089 -2.428,2.44c0,1.344 1.083,2.427 2.428,2.427c1.35,0 2.439,-1.083 2.439,-2.427Zm-0.359,0c0,1.143 -0.93,2.068 -2.08,2.068c-1.144,0 -2.069,-0.925 -2.069,-2.068c0,-1.15 0.925,-2.081 2.069,-2.081c1.15,0 2.08,0.931 2.08,2.081Zm-0.936,-0.968c0,-0.097 -0.061,-0.188 -0.171,-0.188l-1.929,0c-0.109,0 -0.17,0.091 -0.17,0.188c0,0.085 0.061,0.189 0.17,0.189l0.743,0l0,1.996c0,0.109 0.115,0.17 0.219,0.17c0.115,0 0.225,-0.061 0.225,-0.17l0,-1.996l0.742,0c0.11,0 0.171,-0.104 0.171,-0.189Z" style="fill:#fff;fill-rule:nonzero;"/></g></svg>