<?xml version="1.0" encoding="UTF-8" standalone="no"?><!DOCTYPE svg PUBLIC "-//W3C//DTD SVG 1.1//EN" "http://www.w3.org/Graphics/SVG/1.1/DTD/svg11.dtd"><svg width="100%" height="100%" viewBox="0 0 8 4" version="1.1" xmlns="http://www.w3.org/2000/svg" xmlns:xlink="http://www.w3.org/1999/xlink" xml:space="preserve" xmlns:serif="http://www.serif.com/" style="fill-rule:evenodd;clip-rule:evenodd;stroke-linejoin:round;stroke-miterlimit:2;"><g><path d="M1.092,3.285c-0.341,0 -0.608,-0.114 -0.801,-0.343c-0.194,-0.229 -0.291,-0.543 -0.291,-0.943l0,-1.75l0.485,0l0,1.737c0,0.274 0.053,0.477 0.159,0.607c0.105,0.13 0.254,0.195 0.448,0.195c0.196,0 0.346,-0.067 0.451,-0.2c0.104,-0.133 0.156,-0.333 0.156,-0.602l0,-1.737l0.485,0l0,1.75c0,0.4 -0.097,0.714 -0.29,0.943c-0.194,0.229 -0.461,0.343 -0.802,0.343Z" style="fill:#ff8b66;fill-rule:nonzero;"/><path d="M3.681,0.944c0.159,0 0.3,0.048 0.421,0.145c0.121,0.098 0.216,0.236 0.285,0.414c0.069,0.179 0.103,0.386 0.103,0.62c0,0.363 -0.08,0.647 -0.241,0.851c-0.161,0.205 -0.379,0.307 -0.656,0.307c-0.081,0 -0.157,-0.01 -0.228,-0.03c-0.071,-0.02 -0.152,-0.056 -0.243,-0.107l0,0.09l-0.485,0l0,-3.234l0.485,0l0,1.214c0.154,-0.18 0.341,-0.27 0.559,-0.27Zm-0.136,1.861c0.152,0 0.262,-0.054 0.331,-0.163c0.068,-0.109 0.103,-0.285 0.103,-0.528c0,-0.231 -0.028,-0.403 -0.085,-0.514c-0.056,-0.112 -0.144,-0.168 -0.265,-0.168c-0.171,0 -0.34,0.092 -0.507,0.275l0,1.046c0.066,0.023 0.131,0.038 0.195,0.043c0.064,0.006 0.14,0.009 0.228,0.009Z" style="fill:#ff8b66;fill-rule:nonzero;"/><path d="M6.534,2.286l-1.334,0c0.019,0.172 0.074,0.303 0.163,0.395c0.09,0.091 0.209,0.137 0.359,0.137c0.11,0 0.23,-0.024 0.358,-0.071c0.129,-0.047 0.248,-0.112 0.359,-0.195l0.015,0l0,0.459c-0.099,0.088 -0.211,0.156 -0.337,0.204c-0.126,0.047 -0.259,0.07 -0.399,0.07c-0.201,0 -0.376,-0.047 -0.526,-0.141c-0.149,-0.095 -0.265,-0.23 -0.345,-0.408c-0.081,-0.177 -0.122,-0.384 -0.122,-0.622c0,-0.231 0.039,-0.436 0.116,-0.613c0.077,-0.177 0.186,-0.314 0.325,-0.412c0.14,-0.097 0.302,-0.145 0.486,-0.145c0.179,0 0.335,0.047 0.469,0.141c0.133,0.094 0.236,0.23 0.307,0.408c0.071,0.177 0.106,0.384 0.106,0.621l0,0.172Zm-0.882,-0.888c-0.115,0 -0.212,0.044 -0.289,0.133c-0.077,0.089 -0.129,0.212 -0.156,0.369l0.827,0c-0.019,-0.163 -0.061,-0.287 -0.125,-0.373c-0.063,-0.086 -0.149,-0.129 -0.257,-0.129Z" style="fill:#ff8b66;fill-rule:nonzero;"/><path d="M7.884,0.944l0,0.557l-0.063,0c-0.191,0 -0.346,0.062 -0.467,0.185l0,1.548l-0.485,0l0,-1.741l-0.081,-0.498l0.486,0l0.047,0.296c0.081,-0.129 0.155,-0.219 0.221,-0.27c0.066,-0.052 0.14,-0.077 0.221,-0.077l0.121,0Z" style="fill:#ff8b66;fill-rule:nonzero;"/></g></svg>