<?xml version="1.0" encoding="UTF-8" standalone="no"?><!DOCTYPE svg PUBLIC "-//W3C//DTD SVG 1.1//EN" "http://www.w3.org/Graphics/SVG/1.1/DTD/svg11.dtd"><svg width="100%" height="100%" viewBox="0 0 6 5" version="1.1" xmlns="http://www.w3.org/2000/svg" xmlns:xlink="http://www.w3.org/1999/xlink" xml:space="preserve" xmlns:serif="http://www.serif.com/" style="fill-rule:evenodd;clip-rule:evenodd;stroke-linejoin:round;stroke-miterlimit:2;"><path id="Upload-Icon" serif:id="Upload Icon" d="M4.44,4.32c0,0 0,0 -0.001,0l0,0l-1.324,0l0,-1.333l0.295,0.296c0.098,0.098 0.256,0.098 0.353,0c0.098,-0.098 0.098,-0.257 0,-0.355l-0.695,-0.699c-0.053,-0.052 -0.122,-0.074 -0.19,-0.07c-0.069,-0.005 -0.14,0.017 -0.193,0.07l-0.696,0.699c-0.097,0.098 -0.097,0.257 0,0.355c0.098,0.098 0.256,0.098 0.353,0l0.295,-0.296l0,1.333l-1.078,0l0,0c-0.861,0 -1.559,-0.699 -1.559,-1.56c0,-0.784 0.58,-1.426 1.332,-1.537c0.28,-0.715 0.974,-1.223 1.788,-1.223c1.029,0 1.867,0.811 1.915,1.828c0.429,0.218 0.725,0.658 0.725,1.172c0,0.729 -0.591,1.32 -1.32,1.32Z" style="fill:#ff8b66;"/></svg>