<?xml version="1.0" encoding="UTF-8" standalone="no"?><!DOCTYPE svg PUBLIC "-//W3C//DTD SVG 1.1//EN" "http://www.w3.org/Graphics/SVG/1.1/DTD/svg11.dtd"><svg width="100%" height="100%" viewBox="0 0 5 6" version="1.1" xmlns="http://www.w3.org/2000/svg" xmlns:xlink="http://www.w3.org/1999/xlink" xml:space="preserve" xmlns:serif="http://www.serif.com/" style="fill-rule:evenodd;clip-rule:evenodd;stroke-linejoin:round;stroke-miterlimit:2;"><path id="Pin-Icon" serif:id="Pin Icon" d="M3.959,2.74c-0.46,1.551 -1.919,3.02 -1.919,3.02c0,0 -1.453,-1.466 -1.917,-3.013c-0.078,-0.218 -0.123,-0.463 -0.123,-0.708c0,-1.133 0.913,-2.039 2.04,-2.039c1.127,0 2.04,0.906 2.04,2.039c0,0.242 -0.044,0.485 -0.121,0.701Zm-1.919,-1.54c-0.464,0 -0.84,0.376 -0.84,0.84c0,0.464 0.376,0.84 0.84,0.84c0.464,0 0.84,-0.376 0.84,-0.84c0,-0.464 -0.376,-0.84 -0.84,-0.84Z" style="fill:#f9c153;"/></svg>